<svg id="Layer_1" data-name="Layer 1" xmlns="http://www.w3.org/2000/svg" viewBox="0 0 193 193"><defs><style>.cls-1{fill:#fff;}.cls-2,.cls-3,.cls-4,.cls-5{fill:none;}.cls-2{stroke:#224898;}.cls-2,.cls-4,.cls-5{stroke-width:5px;}.cls-4{stroke:#f9cc34;}.cls-5{stroke:#60a7e3;}.cls-6{fill:#a60311;stroke:#a60311;stroke-miterlimit:10;}</style></defs><g id="Group_11" data-name="Group 11"><g id="Group_10" data-name="Group 10"><g id="Ellipse_5" data-name="Ellipse 5"><ellipse class="cls-1" cx="96.5" cy="96.5" rx="78.5" ry="79.5"/><ellipse class="cls-2" cx="96.5" cy="96.5" rx="76" ry="77"/></g><circle id="Ellipse_9" data-name="Ellipse 9" class="cls-1" cx="96.5" cy="96.5" r="96.5"/><g id="Ellipse_6" data-name="Ellipse 6"><ellipse class="cls-3" cx="96.5" cy="96.5" rx="81.5" ry="83.5"/><ellipse class="cls-2" cx="96.5" cy="96.5" rx="79" ry="81"/></g><g id="Ellipse_7" data-name="Ellipse 7"><ellipse class="cls-3" cx="96.5" cy="97" rx="84.5" ry="86"/><ellipse class="cls-4" cx="96.5" cy="97" rx="82" ry="83.5"/></g><g id="Ellipse_8" data-name="Ellipse 8"><ellipse class="cls-3" cx="96" cy="96.5" rx="88" ry="89.5"/><ellipse class="cls-5" cx="96" cy="96.5" rx="85.5" ry="87"/></g></g><g id="oev-logo-v6Artboard_2" data-name="oev-logo-v6Artboard 2"><path id="Path_63" data-name="Path 63" class="cls-6" d="M96.8,121.25c-3.26.07-6.62.66-9.77.08-5-.94-10-.36-14.92-.44-3.92-.08-7.85.38-11.78.58-.58,0-1.17,0-1.92-.09,0-3.55-.17-7,.1-10.41.09-1.21,1.27-2.32,1.92-3.49a3.12,3.12,0,0,0,.56-1.34q.06-10.5,0-21c0-.44-.41-.84-.61-1.28-.32-.67-1-1.47-.84-2,.28-.81.5-1.83,2-1.82,10.11.11,20.22.06,30.34.06,12.41,0,24.82.05,37.23-.06,1.54,0,1.95.83,2.37,1.82s-.17,1.6-1.05,2.09a1.6,1.6,0,0,0-.47,1.23c0,7-.13,14,.08,21,0,1.37,1.3,2.71,2,4.07.16.3.45.61.45.92,0,3.33,0,6.66,0,10.06a5.74,5.74,0,0,1-1,.21h-8.88c-1,0-1.33-.3-1.28-1.33.08-2.63.14-5.26,0-7.88-.1-2,1.42-3.1,2-4.73.18-.55.69-1,.69-1.56,0-6.89,0-13.77,0-20.68,0-.53-.65-1-.86-1.59-.3-.85-.48-1.75-.76-2.8H111c4.4,1.38,8,3.52,8.69,8.77h-3.56c.57-.44,1.48-.85,1.74-1.5a3.21,3.21,0,0,0-.15-2.47c-.77-1.33-1.86-1-3,.2-1.07-2.18-2.66-3.25-4.67-2.4l-1.72-2.59-1.82,2.55a3.29,3.29,0,0,0-4.31,1.76,1.19,1.19,0,0,0-.08.2c-1.06-.14-2-.56-2.56-.27a2.74,2.74,0,0,0-1,2,2.37,2.37,0,0,0,2,2.56H97.28c-.41-3.55,1.88-5.92,8.63-8.79H95.69c.81,1.38.71,2.47-.87,3.16-.22.1-.28.77-.28,1.18,0,6.94-.06,13.89,0,20.83a4.85,4.85,0,0,0,1.23,2.6,6.85,6.85,0,0,1,1.31,4.77c-.1,2.19,0,4.37,0,6.56a5.19,5.19,0,0,1-.36,1.28V110.83H86.41c0,3,.07,5.9,0,8.78,0,1.27.45,1.59,1.6,1.58C90.92,121.16,93.86,121.22,96.8,121.25ZM67.93,80.91c.79,1.34.93,2.3-.51,3-.32.15-.49.89-.49,1.33q-.06,10.31,0,20.61c0,.44-.07,1,.17,1.26a8.39,8.39,0,0,1,2.43,7.3,4.41,4.41,0,0,0-.09.89c.2,0-.08,2,.12,2H85.72c.27,0,0-2.22.24-2.22,0-.89.05-1.66,0-2.41a3.38,3.38,0,0,1,.76-2.93,6.52,6.52,0,0,0,1.84-3.64c.18-7,.1-14.07.08-21.1,0-.4-.12-1-.35-1.13-1.67-.65-1.38-1.78-.71-3.11l-1.92.09v31.5H69.86V80.89Zm61.37,26.23V94.32c0-4.13.12-8.25-.19-12.33h-4c-.79,4.22-.4,8.26-.45,12.31,0,4.24,0,8.5,0,12.84ZM89.59,81.94a106.74,106.74,0,0,0-.32,12.39v12.78H94c0-4.36,0-8.56,0-12.75s.26-8.22-.44-12.42Zm-27.75,0c-.34,8.54-.08,16.83-.18,25.16h4.61V94.33c0-4.13-.1-8.25-.14-12.39Zm60,28.82c0,3.27,0,6.37,0,9.47,0,.31.44.89.67.89,3.2.06,6.39,0,9.6,0v-10.4Zm-63.11,0c0,3.23,0,6.32,0,9.42,0,.34.72.93,1.12.94q4.1.12,8.19,0c.37,0,1-.54,1-.85.08-3.14.05-6.29.05-9.52ZM83.37,100c0-2.54.2-5.17-.05-7.75a9.93,9.93,0,0,0-3.24-6.79,3.16,3.16,0,0,0-4.46-.1l-.1.1a8.1,8.1,0,0,0-1.73,2.14c-2.37,4.52-2.36,9.26-.89,14a10.9,10.9,0,0,0,2.47,4c1.56,1.65,3.49,1.54,5-.19A37.11,37.11,0,0,0,83,101.4a6.1,6.1,0,0,0,1.41.16c.12,0,.38-.82.27-.91a6.11,6.11,0,0,0-1.3-.66Zm2.53,17.12H69.16V113.2H85.91Z"/><path id="Path_64" data-name="Path 64" class="cls-6" d="M97.16,90.73h22.47v14.7H97.16Z"/><path id="Path_65" data-name="Path 65" class="cls-6" d="M56.61,80.86l-.94-1.34c3-2,5.93-3.94,8.88-5.87,2.19-1.44,4.37-2.9,6.6-4.27a2.27,2.27,0,0,0,1.18-2.27c-.08-2.4-.09-4.81,0-7.21,0-.44.6-.89.89-1.33s.55-.89,1-1.55h4c.3.71-.12,2.11,1.58,1.55v5.08l8.81-5.77c2-1.34,4-2.67,6-3.92a1.93,1.93,0,0,1,1.69,0q19.29,12.58,38.52,25.25a2.59,2.59,0,0,1,.4.41l-.84,1.33c-3.21-2.1-6.36-4.13-9.49-6.21-3.67-2.38-7.29-4.8-11-7.16a5.16,5.16,0,0,0-2.57-.75q-15.9-.08-31.8,0a5,5,0,0,0-2.55.8c-6.52,4.21-13,8.48-19.47,12.73C57.25,80.5,57,80.65,56.61,80.86ZM102.08,60l-.31-.55c-1.87-.14-2.27,2.18-3.94,2.73.39-.89.7-1.67,1-2.44.69-1.52.69-1.52-.3-2l-1.9,3.94A33.43,33.43,0,0,1,96.31,57c0-.44-.49-.89-.75-1.33-.33.44-.91.89-1,1.36-.12,1.6,0,3.2,0,4.81l-.29.05-2-4.12-.6.19c-.52,1.64,1.24,2.84,1.39,4.88-.87-1-1.4-1.67-2-2.29-1.18-1.22-1.2-1.2-2.35-.31l3.58,3-.26.33c-1.42-.66-2.82-1.33-4.25-2-.36-.16-.93-.35-1.19-.2-2.32,1.44-4.56,3-7.13,4.62h32.18c-2.53-1.65-4.7-3.1-6.92-4.49a1.86,1.86,0,0,0-1.43,0c-1.48.61-2.9,1.33-4.35,2l-.14-.24ZM73,67.75A42.61,42.61,0,0,1,77.41,65c1.82-.89,2-2.22,1.55-4H73ZM76.2,59.2h0c-.82,0-1.64,0-2.45,0-.25,0-.48.28-.72.45.19.21.37.58.57.59,1.63,0,3.26,0,4.88,0,.19,0,.37-.28.56-.44-.19-.2-.36-.56-.57-.57A19.16,19.16,0,0,0,76.2,59.2Z"/><path id="Path_66" data-name="Path 66" class="cls-6" d="M58.63,124.62v-2.56h73.78v2.56Z"/><path id="Path_67" data-name="Path 67" class="cls-6" d="M67.93,77.56H95.11l.1-.45c-1-.62-2.06-1.33-3.14-1.85a1.87,1.87,0,0,1-1.11-2c0-4,.39-4.69,4.05-6.12a1.75,1.75,0,0,1,1.17.14c.6.26,1.11.73,1.71,1,1.75.65,2.16,1.83,2.17,3.66,0,2-.45,3.32-2.39,4a4.05,4.05,0,0,0-1.77,1.48H123c0,.25.05.5.08.75a9.4,9.4,0,0,1-1.75.29q-14.65,0-29.35,0H69.67a10.8,10.8,0,0,1-1.78-.28Zm31.39-5.47c-.18-.82-.1-1.87-.58-2.3C97.85,69,96.6,68,95.53,68a5.44,5.44,0,0,0-3.36,1.81c-.52.55-.34,1.82-.37,2.78,0,1.38,2.38,3.85,3.69,3.52a8.1,8.1,0,0,0,3.23-1.82c.48-.4.42-1.44.6-2.21Z"/><path id="Path_68" data-name="Path 68" class="cls-6" d="M121.38,53.08c1.42,1.3,3.25,1.83,4.58,3.57l10.66-6.26c.66.26.54.89.14,1.67-1.44,2.94-2.83,5.9-4.22,8.86-.29.62-.52,1.28-.81,2l-1.4-1.28c.75-1.33,1.51-2.55,2.12-3.83.33-.71-1.78-2.78-2.44-2.42-1.29.69-2.5,1.55-3.76,2.35l-6.51-4.3L126.51,43l1,.64Zm11.8,3.15,1.69-3.4-.26-.18-3.23,2Z"/><path id="Path_69" data-name="Path 69" class="cls-6" d="M48.5,76.67c-3.9-.08-7.25-3.22-7.22-6.8a4.69,4.69,0,0,1,4.7-4.7h.14c4,0,7.46,3.36,7.38,7C53.45,74.9,51.4,76.72,48.5,76.67Zm-1.66-10c-3.55,0-5.7,2.75-4.17,5.5a6.35,6.35,0,0,0,2.19,2.12,5.78,5.78,0,0,0,6.61-.24,3.29,3.29,0,0,0,.86-3.89A6.07,6.07,0,0,0,46.84,66.69Z"/><path id="Path_70" data-name="Path 70" class="cls-6" d="M138.46,64.07l.95-.67,3,4a6.09,6.09,0,0,1-7.43.06c-1.91-1.72-2-4.48-.22-6.81a7.73,7.73,0,0,1,5.07-3,5.13,5.13,0,0,1,6.13,3.9A3.11,3.11,0,0,1,146,62a8.69,8.69,0,0,0,.54,1.39l-2,.44c-.08-.23-.15-.33-.14-.44.32-1.86.06-3.52-1.77-4.52a4.71,4.71,0,0,0-5.33,1,9.38,9.38,0,0,0-2,2.94,3.66,3.66,0,0,0,.91,4.48c1.43,1.16,2.92.81,4.67.05Z"/><path id="Path_71" data-name="Path 71" class="cls-6" d="M42.33,104.66A24.61,24.61,0,0,1,46.74,107a4.31,4.31,0,0,1,.48,6.09,4.26,4.26,0,0,1-.42.43,7.26,7.26,0,0,1-8.91.89,4.41,4.41,0,0,1-.48-7.34A28.89,28.89,0,0,1,42.33,104.66Zm-1.47,9.93a6.09,6.09,0,0,0,5.73-3.66,3.33,3.33,0,0,0-.76-3.77c-1.22-1.27-3.61-1.46-5.67-.39a7,7,0,0,0-2,1.62,3.61,3.61,0,0,0-.85,4.06C38,114,39.49,114.42,40.86,114.59Z"/><path id="Path_72" data-name="Path 72" class="cls-6" d="M118.29,143.51c0-2.5,1.22-4.51,3.2-5.2s4.25.06,5.84,2.17a6.92,6.92,0,0,1,1.11,6.79,4.42,4.42,0,0,1-5.51,2.94,4.59,4.59,0,0,1-1.41-.72A7.33,7.33,0,0,1,118.29,143.51Zm4.25-4a3.43,3.43,0,0,0-3.48,3.39,2.68,2.68,0,0,0,0,.49,6.4,6.4,0,0,0,4.29,5.28,3.36,3.36,0,0,0,4.39-1.8,3.74,3.74,0,0,0,.24-.93,5.81,5.81,0,0,0-5.16-6.39l-.31,0Z"/><path id="Path_73" data-name="Path 73" class="cls-6" d="M150.7,113.23a6.78,6.78,0,0,1-4.91-2.52,4.79,4.79,0,0,1-1.1-4.89,4.68,4.68,0,0,1,4-3.14,7.48,7.48,0,0,1,7.55,4.07C157.77,110.16,155.27,113.39,150.7,113.23Zm.2-1.09a18.24,18.24,0,0,0,2.84-1c2.52-1.42,2.78-4.23.37-5.83a8,8,0,0,0-4.26-1.22,4.21,4.21,0,0,0-4.39,3.63c-.17,1.92,1.34,3.51,3.9,4.14.42.1.84.18,1.53.32Z"/><path id="Path_74" data-name="Path 74" class="cls-6" d="M60.38,62.82l-8.55-9.06C53.42,52,55.09,50,58,50.74a6.75,6.75,0,0,1,5.14,5.18A6.1,6.1,0,0,1,60.38,62.82Zm.06-1.62c2.83-2.43,2.9-4.81.35-7.36a4.9,4.9,0,0,0-6.92-.4,4.68,4.68,0,0,0-.39.38Z"/><path id="Path_75" data-name="Path 75" class="cls-6" d="M53.41,121.44l-11,5.48-.55-.83,7.79-3.9,0-.33-5.16-.53,2.77-4.18-.2-.26-7.7,4-.48-.68,10.78-5.55c1,1.1-.51,1.88-1,2.8a36.43,36.43,0,0,1-2,3.27Z"/><path id="Path_76" data-name="Path 76" class="cls-6" d="M51.86,125.56,45,131l-.53-.68L54,122.86c.78.34.37,1.1,0,1.85s-.64,1.51-.94,2.27-.56,1.51-.86,2.35c2.29.28,4.48-.78,6.53-.35l-9.62,7.41-.63-.82,6.83-5.17-.12-.37-5.08.39,2-4.69Z"/><path id="Path_77" data-name="Path 77" class="cls-6" d="M145.65,100.47a5.79,5.79,0,0,1,1.27-1.25c2.65-1.39,5.33-2.7,8-4.4h-8.75v-1h11.79l.32.36c-.35.38-.63.89-1.06,1.12-2.32,1.22-4.68,2.35-7,3.53a3.45,3.45,0,0,0-1.43,1.19h9.2c0,.4,0,.8,0,.93H145.92Z"/><path id="Path_78" data-name="Path 78" class="cls-6" d="M67.18,146.73l4.58-7.38.84.41c-2.15,3.42-4.25,6.8-6.55,10.52a7.8,7.8,0,0,1-.39-1.92c.13-3.11.32-6.21.21-9.44-1.61,2.6-3.21,5.2-4.86,7.88l-.68-.44,6.42-10.45a5.82,5.82,0,0,1,.57,1.83c-.08,2.51-.29,5-.44,7.52,0,.45,0,.93,0,1.39Z"/><path id="Path_79" data-name="Path 79" class="cls-6" d="M151.15,73.05c-.89-2-1.53-3.35-2.22-4.89l-5,2.38,2.16,4.21-1.14.54-2-4.25-3.35,1.57L142,77.26l-1.16.52c-1-2-1.89-3.89-2.79-5.77l11.31-5.48c.68,1.43,1.53,3.08,2.22,4.79C151.74,71.68,151.38,72.23,151.15,73.05Z"/><path id="Path_80" data-name="Path 80" class="cls-6" d="M74.92,51.46c-.17.29-.28.69-.54.84-1.63,1-3.3,1.93-4.91,2.86L63.2,44.29l5.26-3.11.66,1-4.31,2.4,2.77,4.8,4-2.41.71,1-4.17,2.34L70,53.58l4.44-2.74.54.66Z"/><path id="Path_81" data-name="Path 81" class="cls-6" d="M75,51.5c.16-.27.47-.54.44-.8-.15-4-.35-7.92-.56-12.25.4.16,1.07.23,1.36.6,2,2.48,3.84,5,5.78,7.55.52.68,1.11,1.33,1.77,2.06l-1.84.64L79.16,45c-1,.56-2.55.89-2.76,1.59-.38,1.34,0,2.9,0,4.67l-1.51.16Zm1.29-10.22-.32.15.26,3.66,2.24-.84Z"/><path id="Path_82" data-name="Path 82" class="cls-6" d="M87.69,36.38l-.88,1.35-.36-.13a8.71,8.71,0,0,0-2.25-.83c-.28,0-1,.89-.89,1.25a4.52,4.52,0,0,0,1.22,2.41,8.11,8.11,0,0,0,2.73,1,3.13,3.13,0,0,1,2.58,2.81,3.39,3.39,0,0,1-1.52,3.55,3.8,3.8,0,0,1-4.17,0,9.18,9.18,0,0,1-.85-.66l.89-1.4a17,17,0,0,0,1.44,1.09c1.22.7,2.47.48,3-.5a2.51,2.51,0,0,0-1.11-3.21c-1.1-.47-2.26-.76-3.4-1.16a2.78,2.78,0,0,1-2-2.88,3.41,3.41,0,0,1,2-3.3A3,3,0,0,1,87.69,36.38Z"/><path id="Path_83" data-name="Path 83" class="cls-6" d="M103.07,157.29h-1.83c-.37-1.36-.67-2.69-1.15-3.95-.11-.31-.88-.57-1.3-.52-.69.07-1.78.22-2,.66a23.91,23.91,0,0,0-1,4.09l-1.12.05,3.2-12.39c.45.47,1,.83,1.17,1.33,1,2.67,1.94,5.33,2.91,8C102.32,155.41,102.67,156.26,103.07,157.29Zm-4.67-8.92h-.31l-.83,3.31h2.31Z"/><path id="Path_84" data-name="Path 84" class="cls-6" d="M145,133.8l-7.92-10c.34-.08.89-.4,1.3-.28,3.11.89,6.16,1.85,9.24,2.77.66.2,1.33.31,2.11.49l-1,1.5c-1.38-.52-2.6-1-3.87-1.42-.78-.23-2.47,1.92-2,2.6a42.76,42.76,0,0,0,2.72,3.44Zm-5.14-8.51-.26.29,2.29,2.66c.47-.73.84-1.29,1.27-1.93Z"/><path id="Path_85" data-name="Path 85" class="cls-6" d="M64.79,134.65l.71.62c-1.45,1.57-2.84,3.13-4.28,4.63a13.64,13.64,0,0,1-2.34,2,3.64,3.64,0,0,1-4.78-.39c-1.27-1.28-1.46-2.84-.22-4.6s2.59-3.11,3.89-4.64l1.92-2.22.85.75c-1.83,2.17-3.65,4.26-5.38,6.44a2.42,2.42,0,0,0-.5,1.83A4,4,0,0,0,56,141.46a2.66,2.66,0,0,0,2.49-.21C60.65,139.18,62.65,136.92,64.79,134.65Z"/><path id="Path_86" data-name="Path 86" class="cls-6" d="M132.8,130.68c.18.58.34,1.14.4,1.33a28.47,28.47,0,0,0-3.92,2.2,3.18,3.18,0,0,0-.7,2.24c0,2.37,2.44,4.8,5,5.14,1.4.18,2.9.18,3.67-1.19a19.28,19.28,0,0,0,1.16-3.86,5.13,5.13,0,0,1-.62,4.92,4.21,4.21,0,0,1-4.52,1.65,7.38,7.38,0,0,1-5.49-7.27,4.9,4.9,0,0,1,3.3-4.47Z"/><path id="Path_87" data-name="Path 87" class="cls-6" d="M45.69,103.11l-1.91-.7c1.71-2.79,1.74-4.63.11-6a5.86,5.86,0,0,0-7.63.72c-1,1-1.68,2.22-1.11,3.56A18.87,18.87,0,0,0,37.54,104a5.32,5.32,0,0,1-3.63-3.7,4.19,4.19,0,0,1,1.52-4.4,7.33,7.33,0,0,1,9.09.12A4.82,4.82,0,0,1,46,101.46a11.43,11.43,0,0,0-.31,1.65Z"/><path id="Path_88" data-name="Path 88" class="cls-6" d="M104.71,155.4l.94-1.37a9.89,9.89,0,0,0,1.09.95c1.1.71,2.6.55,3.11-.3a2.49,2.49,0,0,0-1.25-3.29h0c-.8-.32-1.67-.44-2.51-.72-1.25-.39-2.31-1-2.47-2.48a3.38,3.38,0,0,1,1.5-3.55,3.1,3.1,0,0,1,3.76.31l-.7,1.15a12.39,12.39,0,0,0-2.7-.66c-.32,0-1,1-.89,1.28A4.94,4.94,0,0,0,106,149a9.64,9.64,0,0,0,2.6.89,3.44,3.44,0,0,1,2.35,4.28,3.41,3.41,0,0,1-5,2A13.48,13.48,0,0,1,104.71,155.4Z"/><path id="Path_89" data-name="Path 89" class="cls-6" d="M115.63,142.6l-.63,1.3a10.32,10.32,0,0,0-2.77-.23c-.32.06-.67,1-.66,1.59a2,2,0,0,0,1.85,2c.86.13,1.71.3,2.57.44a2.84,2.84,0,0,1,2.7,2.22c.28,1.41.31,2.76-1,3.73a3.7,3.7,0,0,1-4.14.4,4,4,0,0,1-.56-.44l.55-1.38a15.2,15.2,0,0,0,1.42.8,2.1,2.1,0,0,0,2.87-.82l.06-.1a2.48,2.48,0,0,0-1.56-2.88,15.79,15.79,0,0,0-2.57-.39c-1.4-.17-2.56-.64-3-2.11a3.36,3.36,0,0,1,.94-3.75C112.84,141.92,114.11,142.12,115.63,142.6Z"/><path id="Path_90" data-name="Path 90" class="cls-6" d="M103.14,35l1.52.32c.35,3.36.69,6.7,1,10l.35.1c1.55-2.93,3.11-5.85,4.77-9l.88.17-6.37,11.51-.51-.1C104.25,43.79,103.73,39.5,103.14,35Z"/><path id="Path_91" data-name="Path 91" class="cls-6" d="M105.42,84.71c-.2,1-.3,1.48-.4,2-.41-.18-1.19-.41-1.17-.54a2.71,2.71,0,0,1,.61-1.66,1.78,1.78,0,0,1,2.67,1,9.12,9.12,0,0,1,.34,1.65,7.06,7.06,0,0,0,.92.15,5.24,5.24,0,0,0,.88-.08,10.89,10.89,0,0,1,.35-1.58c.47-1.26,1.82-1.84,2.71-1.09a2.63,2.63,0,0,1,.61,1.63c0,.14-.74.36-1.15.55-.1-.53-.2-1-.36-1.91a9.81,9.81,0,0,0-.8,1.37c-.25.64-.4,1.33-.72,2.4l2.45.61-.08.62c-.93-.13-1.86-.3-2.8-.39a12.74,12.74,0,0,0-2.14,0c-.94.09-1.88.26-2.82.38l-.08-.65,1.45-.31,1.18-.27Z"/><path id="Path_92" data-name="Path 92" class="cls-6" d="M114.89,49.92l4.59,2c-.08.78-.38,1.18-1.42.66-1.6-.81-3.27-1.5-4.7-2.14l5.2-11.41,1.13.48Z"/><path id="Path_93" data-name="Path 93" class="cls-6" d="M82.67,144c1.16-.31,1.67.1,1.89,1.08.33,1.49.74,3,1.22,4.89l3.29-4.71-.33-.35,1.41.38c-2.9,3.21-5.43,6.52-5.1,11.1a1.18,1.18,0,0,1-.37.09l-1.28-.27C85.6,152,83.81,148.06,82.67,144Z"/><path id="Path_94" data-name="Path 94" class="cls-6" d="M93,47.37V35.71l-3,.49V35l6.7-.37.07,1.26L94,35.64c.19,4,.37,7.77.56,11.66Z"/><path id="Path_95" data-name="Path 95" class="cls-6" d="M58.93,62.79c.73.23,1,.62.37,1.44-1.12,1.4-2.18,2.86-3.2,4.19l-9.93-7.63.72-1,9,7Z"/><path id="Path_96" data-name="Path 96" class="cls-6" d="M142.22,114.7l1.06.59-1.54,2.22,10,5-.45,1.05-10-5c-.35.89-.67,1.65-1,2.54-1,0-1-.61-.54-1.54C140.59,118,141.36,116.42,142.22,114.7Z"/><path id="Path_97" data-name="Path 97" class="cls-6" d="M82.31,143.64l-.41,1.06-2.46-1.08L75.75,154.1l-1.09-.32,3.78-10.54-2.68-.64c.1-.77.33-1.28,1.51-.77C78.86,142.51,80.54,143,82.31,143.64Z"/><path id="Path_98" data-name="Path 98" class="cls-6" d="M114.48,37.66l1.15.35c-1.33,4-2.6,7.91-3.91,11.91l-1.2-.4C111.84,45.54,113.15,41.63,114.48,37.66Z"/><path id="Path_99" data-name="Path 99" class="cls-6" d="M154.18,117c-.11.35-.28.79-.39,1.11l-11.28-4.3c.12-.3.3-.75.45-1.1Z"/><path id="Path_100" data-name="Path 100" class="cls-6" d="M133.12,128.85l.8-.86,9,7.94-.73.94Z"/><path id="Path_101" data-name="Path 101" class="cls-6" d="M74.18,140.51l1.09.47-5.11,10.88L69,151.42C70.74,147.8,72.42,144.25,74.18,140.51Z"/><path id="Path_102" data-name="Path 102" class="cls-6" d="M102.79,120.86V109.45C104.05,111.13,104.12,118.88,102.79,120.86Z"/><path id="Path_103" data-name="Path 103" class="cls-6" d="M107.66,120.86v-11h.77v11Z"/><path id="Path_104" data-name="Path 104" class="cls-6" d="M115.78,109.87v11H115v-11Z"/><path id="Path_105" data-name="Path 105" class="cls-6" d="M101.2,109.8v11h-.64a44.41,44.41,0,0,1,0-11Z"/><path id="Path_106" data-name="Path 106" class="cls-6" d="M118.24,109.87v11h-.6c-.71-3.67-.36-7.33-.09-11Z"/><path id="Path_107" data-name="Path 107" class="cls-6" d="M113.4,109.87v11h-.64a38.93,38.93,0,0,1-.07-10.94Z"/><path id="Path_108" data-name="Path 108" class="cls-6" d="M119.84,120.87V109.79h.8v11.08Z"/><path id="Path_109" data-name="Path 109" class="cls-6" d="M105.23,120.85v-11H106v11Z"/><path id="Path_110" data-name="Path 110" class="cls-6" d="M110.91,109.87v11h-.8v-11Z"/><path id="Path_111" data-name="Path 111" class="cls-6" d="M98.77,109.84v11H98.2c-.8-3.65-.3-7.34-.11-11Z"/><path id="Path_112" data-name="Path 112" class="cls-6" d="M101.74,87.92l.86-1,1.22,1.28c-.64.65-3.59.6-4-.26a2.85,2.85,0,0,1,0-1.56c0-.16.54-.42.59-.38a7.66,7.66,0,0,1,.74,1C101.26,87.22,101.46,87.5,101.74,87.92Z"/><path id="Path_113" data-name="Path 113" class="cls-6" d="M112.9,88.22l1.28-1.33.83,1c.29-.4.49-.7.72-1s.55-.68.83-1c.19.17.52.33.54.52A2.79,2.79,0,0,1,117,88C116.55,88.7,113.69,88.8,112.9,88.22Z"/><path id="Path_114" data-name="Path 114" class="cls-6" d="M108.41,82c.81,1.47,1,2.59,0,3.9C107.33,84.56,107.5,83.45,108.41,82Z"/><path id="Path_115" data-name="Path 115" class="cls-6" d="M83,95.66c-.67,2.4-1.19,4.85-2.06,7.17a3.41,3.41,0,0,1-3.14,2.51c-1.65,0-2.56-1.2-3.17-2.51a16.75,16.75,0,0,1-.08-14.42c.6-1.36,1.56-2.66,3.25-2.66s2.79,1.38,3.3,2.8C81.89,90.81,82.33,93.17,83,95.66Zm-.78-.1A53.84,53.84,0,0,0,80,88.3c-1.14-2.45-3.16-2.47-4.39-.11a15.37,15.37,0,0,0,0,14.74c1.16,2.27,3.24,2.26,4.32-.06a54.22,54.22,0,0,0,2.29-7.3Z"/><path id="Path_116" data-name="Path 116" class="cls-6" d="M99,64.93c1.54-.66,3.1-1.26,4.62-2a2.46,2.46,0,0,1,3,.34c.75.61,1.59,1.1,2.72,1.87H99Z"/><path id="Path_117" data-name="Path 117" class="cls-6" d="M91.84,65.21H81.42c1.55-1,2.74-1.84,4-2.6a.94.94,0,0,1,.77,0c1.93.78,3.85,1.59,5.78,2.4Z"/><path id="Path_118" data-name="Path 118" class="cls-6" d="M98.13,72.12A3,3,0,0,1,95.55,75a3.11,3.11,0,0,1-2.75-2.93,3.26,3.26,0,0,1,2.67-3C96.71,69.07,98.14,70.69,98.13,72.12Z"/></g></g></svg>